<svg width="11" height="10" viewBox="0 0 11 10" fill="none" xmlns="http://www.w3.org/2000/svg">
<path d="M5.32086 1.06997C6.58086 1.06997 6.73086 1.06997 7.23086 1.06997C7.52779 1.07399 7.82192 1.12809 8.10086 1.22997C8.30796 1.30899 8.49557 1.43179 8.65086 1.58997C8.80449 1.74312 8.92379 1.92719 9.00086 2.12997C9.10134 2.41275 9.15537 2.70992 9.16086 3.00997C9.16086 3.49997 9.16086 3.64997 9.16086 4.90997C9.16086 6.16997 9.16086 6.31997 9.16086 6.81997C9.15537 7.12002 9.10134 7.4172 9.00086 7.69997C8.92379 7.90275 8.80449 8.08682 8.65086 8.23997C8.49557 8.39816 8.30796 8.52095 8.10086 8.59997C7.82192 8.70186 7.52779 8.75595 7.23086 8.75997C6.73086 8.75997 6.58086 8.75997 5.32086 8.75997C4.06086 8.75997 3.91086 8.75997 3.41086 8.75997C3.11081 8.75448 2.81363 8.70045 2.53086 8.59997C2.32689 8.52053 2.14264 8.39769 1.99086 8.23997C1.83385 8.08959 1.71401 7.90471 1.64086 7.69997C1.53548 7.41853 1.48129 7.1205 1.48086 6.81997C1.48086 6.31997 1.48086 6.17997 1.48086 4.90997C1.48086 3.63997 1.48086 3.49997 1.48086 3.00997C1.48129 2.70944 1.53548 2.41142 1.64086 2.12997C1.71401 1.92524 1.83385 1.74035 1.99086 1.58997C2.14264 1.43225 2.32689 1.30941 2.53086 1.22997C2.81363 1.12949 3.11081 1.07546 3.41086 1.06997C3.91086 1.06997 4.06086 1.06997 5.32086 1.06997ZM5.32086 0.219971C4.04086 0.219971 3.88086 0.219971 3.37086 0.219971C2.97835 0.237659 2.59222 0.325725 2.23086 0.479971C1.91253 0.59675 1.62518 0.784895 1.39086 1.02997C1.15265 1.26607 0.965449 1.54857 0.84086 1.85997C0.70919 2.22944 0.638269 2.61781 0.630859 3.00997C0.630859 3.50997 0.630859 3.66997 0.630859 4.94997C0.630859 6.22997 0.630859 6.39997 0.630859 6.89997C0.638269 7.29213 0.70919 7.6805 0.84086 8.04997C0.965449 8.36137 1.15265 8.64387 1.39086 8.87997C1.62518 9.12505 1.91253 9.31319 2.23086 9.42997C2.59747 9.56081 2.98189 9.635 3.37086 9.64997C3.88086 9.64997 4.04086 9.64997 5.32086 9.64997C6.60086 9.64997 6.76086 9.64997 7.26086 9.64997C7.65318 9.63585 8.04103 9.56166 8.41086 9.42997C8.72408 9.30835 9.00855 9.12284 9.24614 8.88525C9.48373 8.64766 9.66924 8.36319 9.79086 8.04997C9.93113 7.68252 10.0056 7.29325 10.0109 6.89997C10.0109 6.39997 10.0109 6.23997 10.0109 4.94997C10.0109 3.65997 10.0109 3.50997 10.0109 3.00997C10.0056 2.61669 9.93113 2.22742 9.79086 1.85997C9.66924 1.54675 9.48373 1.26228 9.24614 1.02469C9.00855 0.787099 8.72408 0.601588 8.41086 0.479971C8.0437 0.338676 7.65424 0.26417 7.26086 0.259971C6.76086 0.259971 6.60086 0.259971 5.32086 0.259971" fill="#808184"/>
<path d="M5.32084 2.48C4.83939 2.47802 4.36819 2.61911 3.96705 2.88536C3.56591 3.15161 3.25291 3.53102 3.06775 3.97545C2.88259 4.41988 2.83362 4.9093 2.92707 5.3816C3.02051 5.85391 3.25215 6.28781 3.59259 6.62825C3.93303 6.96869 4.36694 7.20033 4.83924 7.29377C5.31154 7.38722 5.80096 7.33825 6.24539 7.15309C6.68982 6.96793 7.06923 6.65493 7.33548 6.25379C7.60173 5.85265 7.74282 5.38146 7.74084 4.9C7.73821 4.25899 7.4824 3.64498 7.02913 3.19171C6.57586 2.73844 5.96185 2.48263 5.32084 2.48ZM5.32084 6.48C5.00793 6.48198 4.70147 6.391 4.44033 6.2186C4.17919 6.04619 3.97512 5.80013 3.854 5.5116C3.73288 5.22307 3.70016 4.90508 3.75999 4.59793C3.81982 4.29079 3.96951 4.00832 4.19007 3.78636C4.41063 3.56439 4.69214 3.41291 4.9989 3.35113C5.30566 3.28935 5.62386 3.32005 5.91315 3.43934C6.20244 3.55863 6.44979 3.76113 6.62385 4.02117C6.79791 4.28121 6.89083 4.58708 6.89084 4.9C6.89085 5.31732 6.72576 5.71769 6.43161 6.01371C6.13746 6.30973 5.73815 6.47736 5.32084 6.48Z" fill="#808184"/>
<path d="M8.4114 2.41986C8.41338 2.533 8.38165 2.64417 8.32023 2.73922C8.25882 2.83426 8.17051 2.90887 8.06654 2.95355C7.96258 2.99823 7.84767 3.01095 7.73645 2.9901C7.62523 2.96925 7.52274 2.91577 7.44202 2.83646C7.3613 2.75716 7.30601 2.65563 7.28319 2.54479C7.26038 2.43396 7.27106 2.31884 7.3139 2.21411C7.35673 2.10937 7.42976 2.01975 7.5237 1.95666C7.61765 1.89358 7.72824 1.85988 7.8414 1.85986C7.99085 1.85984 8.13434 1.91852 8.24095 2.02326C8.34756 2.128 8.40877 2.27043 8.4114 2.41986Z" fill="#808184"/>
</svg>
