<svg width="11" height="10" viewBox="0 0 11 10" fill="none" xmlns="http://www.w3.org/2000/svg">
<path d="M8.72857 8.05278C9.1086 7.99561 9.89491 7.86367 10.0453 7.53141C10.1212 7.36029 10.0128 7.22115 9.87449 7.19996V7.19956C8.53773 6.98845 7.93518 5.67463 7.9106 5.61866C7.54016 4.98134 8.54564 5.08849 8.94109 4.69987C9.32695 4.31884 8.70816 3.90622 8.32104 4.08134C8.16228 4.15291 7.92435 4.23607 7.76601 4.1665C7.80351 3.56317 7.90727 2.56281 7.65266 2.01666C6.79635 0.176272 4.27117 0.109901 3.09776 1.17823C2.17311 2.01945 2.28645 2.88427 2.37312 4.1665C2.0856 4.28685 1.80142 4.04776 1.59432 4.04776C1.3768 4.04776 1.12387 4.1833 1.08303 4.3876C1.03136 4.65589 1.33513 4.82861 1.59807 4.92817C2.04602 5.09689 2.47188 5.14687 2.23561 5.60746C2.23353 5.61106 2.23186 5.61466 2.23061 5.61826C1.89601 6.35153 1.16554 7.05642 0.266306 7.19876C0.121295 7.22155 0.0221218 7.36828 0.0946269 7.53021V7.53101C0.243388 7.86366 1.03719 7.99681 1.4118 8.05278C1.52765 8.26069 1.43889 8.67131 1.79766 8.67131C1.93726 8.67131 2.20728 8.58375 2.55189 8.58375C3.054 8.58375 3.22527 8.6889 3.62779 8.96158C4.04116 9.24185 4.49536 9.51573 5.05998 9.47615C5.64794 9.51134 6.08464 9.25185 6.513 8.96238L6.51342 8.96158C6.93095 8.6797 7.2293 8.4714 8.11353 8.63812C8.76774 8.75967 8.5769 8.33466 8.72857 8.05278Z" fill="#808184"/>
</svg>
