<svg width="7" height="10" viewBox="0 0 7 10" fill="none" xmlns="http://www.w3.org/2000/svg">
<path d="M1.14031 7.48006C1.12368 7.81923 1.17118 8.15849 1.28031 8.48006C1.38898 8.74132 1.56078 8.97153 1.78031 9.15006C2.03676 9.36997 2.33658 9.5335 2.66031 9.63006C3.04228 9.74829 3.44049 9.80566 3.84031 9.80006C4.21037 9.80242 4.57947 9.76215 4.94032 9.68006C5.32867 9.57805 5.7069 9.44081 6.07031 9.27006V7.76006C5.6353 8.06289 5.12025 8.22993 4.59031 8.24006C4.33098 8.24501 4.07518 8.17933 3.85031 8.05006C3.69965 7.96079 3.58341 7.82342 3.52031 7.66006C3.44054 7.30256 3.41026 6.9358 3.43031 6.57006V4.07006H5.75031V2.54006H3.43031V0.0600586H2.07031C2.02467 0.493423 1.90635 0.916002 1.72031 1.31006C1.56189 1.62776 1.34078 1.9101 1.07031 2.14006C0.77443 2.38213 0.435007 2.56542 0.0703125 2.68006V4.07006H1.14031V7.48006Z" fill="#808184"/>
</svg>
