<svg width="10" height="8" viewBox="0 0 10 8" fill="none" xmlns="http://www.w3.org/2000/svg">
<path d="M0.650391 6.83004C1.47772 7.3559 2.43343 7.6448 3.41352 7.6653C4.39362 7.6858 5.36056 7.43712 6.20916 6.94631C7.05776 6.45551 7.7555 5.74138 8.22648 4.88162C8.69746 4.02186 8.92363 3.0494 8.88039 2.07004C9.25462 1.7997 9.57369 1.46027 9.82039 1.07004C9.47769 1.22238 9.11329 1.32022 8.74039 1.36004C9.12771 1.13666 9.42217 0.781886 9.57039 0.360044C9.20161 0.584905 8.79498 0.740778 8.37039 0.820044C8.19549 0.631998 7.98335 0.482425 7.74749 0.380848C7.51162 0.27927 7.25719 0.227913 7.00039 0.230044C6.7174 0.228513 6.43776 0.291229 6.18253 0.413466C5.9273 0.535703 5.70315 0.714273 5.52695 0.935721C5.35076 1.15717 5.22712 1.41572 5.16535 1.69188C5.10359 1.96805 5.10531 2.25464 5.17039 2.53004C4.419 2.49003 3.68464 2.29107 3.01582 1.94632C2.34699 1.60156 1.7589 1.11884 1.29039 0.530044C1.04689 0.943019 0.971302 1.43374 1.07924 1.90085C1.18718 2.36795 1.47039 2.77577 1.87039 3.04004C1.59212 3.03407 1.31873 2.96573 1.07039 2.84004C1.06415 3.27901 1.21172 3.70631 1.48752 4.04787C1.76332 4.38942 2.14996 4.62369 2.58039 4.71004C2.30081 4.77529 2.00997 4.77529 1.73039 4.71004C1.84781 5.08437 2.07997 5.41229 2.39404 5.64738C2.7081 5.88248 3.08815 6.01285 3.48039 6.02004C3.0874 6.33846 2.63422 6.57432 2.14795 6.7135C1.66168 6.85268 1.15234 6.89232 0.650391 6.83004Z" fill="#808184"/>
</svg>
